<svg xmlns="http://www.w3.org/2000/svg" width="39.834" height="50" viewBox="0 0 39.834 50"><defs><style>.a{fill:#f16822;}</style></defs><path class="a" d="M64.718,28.992a2.5,2.5,0,0,0-2.175-1.5H51.1L54.27,15.645a2.49,2.49,0,0,0-2.4-3.149h-17.5a2.5,2.5,0,0,0-2.5,1.85l-6.7,25A2.49,2.49,0,0,0,27.6,42.49h9.673L32.749,59.336a2.5,2.5,0,0,0,4.274,2.325L64.268,31.667A2.5,2.5,0,0,0,64.718,28.992Zm-24.47,21.7,2.674-10a2.49,2.49,0,0,0-2.4-3.149h-9.6l5.349-20.046H48.6L45.422,29.342a2.5,2.5,0,0,0,2.5,3.149h8.923Z" transform="translate(-25.087 -12.494)"/></svg>