<svg xmlns="http://www.w3.org/2000/svg" width="50" height="50" viewBox="0 0 50 50"><defs><style>.a{fill:#f16822;}</style></defs><path class="a" d="M49.5,12h-10V9.5A7.5,7.5,0,0,0,32,2H22a7.5,7.5,0,0,0-7.5,7.5V12H4.5A2.5,2.5,0,0,0,2,14.5v10a7.5,7.5,0,0,0,2.5,5.55V44.5A7.5,7.5,0,0,0,12,52H42a7.5,7.5,0,0,0,7.5-7.5V30.05A7.5,7.5,0,0,0,52,24.5v-10A2.5,2.5,0,0,0,49.5,12Zm-30-2.5A2.5,2.5,0,0,1,22,7H32a2.5,2.5,0,0,1,2.5,2.5V12h-15Zm25,35A2.5,2.5,0,0,1,42,47H12a2.5,2.5,0,0,1-2.5-2.5V32h5v2.5a2.5,2.5,0,0,0,5,0V32h15v2.5a2.5,2.5,0,0,0,5,0V32h5Zm2.5-20A2.5,2.5,0,0,1,44.5,27h-5V24.5a2.5,2.5,0,0,0-5,0V27h-15V24.5a2.5,2.5,0,0,0-5,0V27h-5A2.5,2.5,0,0,1,7,24.5V17H47Z" transform="translate(-2 -2)"/></svg>