<svg xmlns="http://www.w3.org/2000/svg" width="69.765" height="48.372" viewBox="0 0 69.765 48.372"><defs><style>.a{fill:#f16822;}.b{fill:#676767;}.c{fill:#121212;}</style></defs><path class="a" d="M90.576,65.054S78.136,59.5,64.2,63.8,34.4,72.132,20.945,54.9c0,0,12.44,5.549,26.374,1.251s29.8-8.33,43.256,8.908Z" transform="translate(-20.945 -19.59)"/><path class="b" d="M37.8,39.393S32.525,28.622,22.455,27.062,1.254,22.861,0,0C0,0,5.27,10.766,15.345,12.328s21.2,4.207,22.453,27.065Z" transform="matrix(0.998, -0.07, 0.07, 0.998, 28.637, 9.075)"/><path class="c" d="M22.818,44.247S20.905,34,13.169,29.117-2.906,18.131.989,0c0,0,1.915,10.248,9.649,15.13s16.077,10.986,12.18,29.117Z" transform="matrix(0.999, -0.035, 0.035, 0.999, 44.427, 0.831)"/></svg>