<svg xmlns="http://www.w3.org/2000/svg" width="20.8" height="26" viewBox="0 0 20.8 26"><defs><style>.a{fill:#777;}</style></defs><path class="a" d="M14.4,2A10.4,10.4,0,0,0,4,12.4c0,7.02,9.165,14.95,9.555,15.288a1.3,1.3,0,0,0,1.69,0C15.7,27.35,24.8,19.42,24.8,12.4A10.4,10.4,0,0,0,14.4,2Zm0,22.945c-2.769-2.6-7.8-8.2-7.8-12.545a7.8,7.8,0,0,1,15.6,0C22.2,16.742,17.169,22.358,14.4,24.945ZM14.4,7.2a5.2,5.2,0,1,0,5.2,5.2A5.2,5.2,0,0,0,14.4,7.2Zm0,7.8A2.6,2.6,0,1,1,17,12.4,2.6,2.6,0,0,1,14.4,15Z" transform="translate(-4 -2)"/></svg>