<svg xmlns="http://www.w3.org/2000/svg" width="45" height="50" viewBox="0 0 45 50"><defs><style>.a{fill:#f16822;}</style></defs><path class="a" d="M35.5,32h-20a2.5,2.5,0,0,0,0,5h20a2.5,2.5,0,0,0,0-5Zm0-10h-15a2.5,2.5,0,0,0,0,5h15a2.5,2.5,0,0,0,0-5Zm10-15H38V4.5a2.5,2.5,0,0,0-5,0V7H28V4.5a2.5,2.5,0,0,0-5,0V7H18V4.5a2.5,2.5,0,0,0-5,0V7H5.5A2.5,2.5,0,0,0,3,9.5v35A7.5,7.5,0,0,0,10.5,52h30A7.5,7.5,0,0,0,48,44.5V9.5A2.5,2.5,0,0,0,45.5,7ZM43,44.5A2.5,2.5,0,0,1,40.5,47h-30A2.5,2.5,0,0,1,8,44.5V12h5v2.5a2.5,2.5,0,0,0,5,0V12h5v2.5a2.5,2.5,0,0,0,5,0V12h5v2.5a2.5,2.5,0,0,0,5,0V12h5Z" transform="translate(-3 -2)"/></svg>