<svg xmlns="http://www.w3.org/2000/svg" width="24.07" height="24" viewBox="0 0 24.07 24"><defs><style>.a{fill:#777;}</style></defs><path class="a" d="M23.068,15.278a3.8,3.8,0,0,1-.809-.145,11.4,11.4,0,0,1-1.582-.471,2.416,2.416,0,0,0-3,1.208l-.266.544A14.711,14.711,0,0,1,14.2,14a14.711,14.711,0,0,1-2.416-3.213l.507-.338a2.416,2.416,0,0,0,1.208-3,12.477,12.477,0,0,1-.471-1.582c-.06-.266-.109-.544-.145-.821A3.623,3.623,0,0,0,9.263,2.04H5.639A3.623,3.623,0,0,0,2.016,6.159,22.949,22.949,0,0,0,21.969,26.04h.459A3.615,3.615,0,0,0,26.052,22.4V18.781A3.623,3.623,0,0,0,23.068,15.278Zm.6,7.247a1.208,1.208,0,0,1-.411.906,1.268,1.268,0,0,1-.99.3A20.533,20.533,0,0,1,4.5,5.881a1.317,1.317,0,0,1,.3-.99,1.208,1.208,0,0,1,.906-.411H9.335a1.208,1.208,0,0,1,1.208.954q.072.5.181.978a13.432,13.432,0,0,0,.556,1.872L9.589,9.07A1.208,1.208,0,0,0,9,10.676a17.5,17.5,0,0,0,8.455,8.455,1.28,1.28,0,0,0,1.606-.628l.749-1.691a16.536,16.536,0,0,0,1.908.556q.483.109.978.181a1.208,1.208,0,0,1,.954,1.208Z" transform="translate(-1.982 -2.04)"/></svg>