<svg xmlns="http://www.w3.org/2000/svg" width="50" height="47.745" viewBox="0 0 50 47.745"><defs><style>.a{fill:#f16822;}</style></defs><path class="a" d="M62.439,33.264a2.5,2.5,0,0,0-2.147-1.673L46.086,29.519,39.72,16.612a2.5,2.5,0,0,0-4.494,0L28.859,29.494l-14.206,2.1a2.459,2.459,0,0,0-1.4,4.194l10.311,9.986-2.5,14.181a2.495,2.495,0,0,0,3.62,2.671l12.783-6.666,12.733,6.691a2.322,2.322,0,0,0,1.148.3,2.51,2.51,0,0,0,2.472-2.971L51.329,45.8,61.64,35.811A2.5,2.5,0,0,0,62.439,33.264ZM47.085,43.251a2.5,2.5,0,0,0-.724,2.222l1.8,10.461L38.771,50.94a2.5,2.5,0,0,0-2.347,0l-9.387,4.993,1.8-10.461a2.5,2.5,0,0,0-.724-2.222l-7.49-7.49,10.511-1.523a2.5,2.5,0,0,0,1.9-1.373l4.444-9.512,4.694,9.537a2.5,2.5,0,0,0,1.9,1.373l10.511,1.523Z" transform="translate(-12.523 -15.204)"/></svg>